<?xml version="1.0" encoding="UTF-8" standalone="no"?>
<!DOCTYPE svg PUBLIC "-//W3C//DTD SVG 1.1//EN" "http://www.w3.org/Graphics/SVG/1.1/DTD/svg11.dtd">
<svg version="1.1" xmlns="http://www.w3.org/2000/svg" xmlns:xlink="http://www.w3.org/1999/xlink" preserveAspectRatio="xMidYMid meet" viewBox="0 0 640 640" width="640" height="640"><defs><path d="M120 480C120 502 138 520 160 520C192 520 448 520 480 520C502 520 520 502 520 480C520 463.33 520 380 520 230L120 230C120 380 120 463.33 120 480Z" id="acTqY9pHr"></path><path d="M160 192.34C138 192.34 120 210.34 120 232.34C120 237.01 120 260.34 120 302.34L520 302.34C520 260.34 520 237.01 520 232.34C520 210.34 502 192.34 480 192.34C416 192.34 192 192.34 160 192.34Z" id="c23od2ukAO"></path><path d="M289.11 450.52C289.11 385.33 312.89 337.92 335.35 308.29C326.76 308.29 258.06 308.29 249.47 308.29C234.94 308.29 223.05 297.63 223.05 284.59C223.05 271.55 234.94 260.89 249.47 260.89C264.01 260.89 380.27 260.89 394.8 260.89C406.69 260.89 415.94 268 419.9 277.48C423.87 286.96 419.9 297.63 410.66 303.55C408.01 305.92 341.96 349.78 341.96 450.52C341.96 463.55 330.06 474.22 315.53 474.22C301 474.22 289.11 463.55 289.11 450.52Z" id="c1vlah42db"></path><path d="M180.08 230C180.08 223 180.08 167 180.08 160C180.08 149 189.08 140 200.08 140C200.08 140 200.08 140 200.08 140C211.08 140 220.08 149 220.08 160C220.08 167 220.08 223 220.08 230C220.08 241 211.08 250 200.08 250C200.08 250 200.08 250 200.08 250C186.75 244 180.08 237.33 180.08 230Z" id="e1TGiY2LqT"></path><path d="M430.08 230C430.08 223 430.08 167 430.08 160C430.08 149 439.08 140 450.08 140C450.08 140 450.08 140 450.08 140C461.08 140 470.08 149 470.08 160C470.08 167 470.08 223 470.08 230C470.08 241 461.08 250 450.08 250C450.08 250 450.08 250 450.08 250C436.75 244 430.08 237.33 430.08 230Z" id="a5hr6hcTw"></path></defs><g><g><g><use xlink:href="#acTqY9pHr" opacity="1" fill="#000000" fill-opacity="1"></use><g><use xlink:href="#acTqY9pHr" opacity="1" fill-opacity="0" stroke="#000000" stroke-width="1" stroke-opacity="0"></use></g></g><g><use xlink:href="#c23od2ukAO" opacity="1" fill="#000000" fill-opacity="1"></use><g><use xlink:href="#c23od2ukAO" opacity="1" fill-opacity="0" stroke="#000000" stroke-width="1" stroke-opacity="0"></use></g></g><g><use xlink:href="#c1vlah42db" opacity="1" fill="#ffffff" fill-opacity="1"></use><g><use xlink:href="#c1vlah42db" opacity="1" fill-opacity="0" stroke="#000000" stroke-width="1" stroke-opacity="0"></use></g></g><g><use xlink:href="#e1TGiY2LqT" opacity="1" fill="#000000" fill-opacity="1"></use><g><use xlink:href="#e1TGiY2LqT" opacity="1" fill-opacity="0" stroke="#000000" stroke-width="1" stroke-opacity="0"></use></g></g><g><use xlink:href="#a5hr6hcTw" opacity="1" fill="#000000" fill-opacity="1"></use><g><use xlink:href="#a5hr6hcTw" opacity="1" fill-opacity="0" stroke="#000000" stroke-width="1" stroke-opacity="0"></use></g></g></g></g></svg>